<svg width="67" height="68" viewBox="0 0 67 68" fill="none" xmlns="http://www.w3.org/2000/svg">
<path d="M39.083 61.917H27.9163C17.3883 61.917 12.1243 61.917 8.85364 58.6463C5.58301 55.3758 5.58301 50.1116 5.58301 39.5837V34.0003C5.58301 23.4723 5.58301 18.2083 8.85364 14.9376C12.1243 11.667 17.3883 11.667 27.9163 11.667H39.083C49.6109 11.667 54.8752 11.667 58.1456 14.9376C61.4163 18.2083 61.4163 23.4723 61.4163 34.0003V39.5837C61.4163 50.1116 61.4163 55.3758 58.1456 58.6463C56.3221 60.4698 53.8791 61.2766 50.2497 61.6336" stroke="#1C274C" stroke-width="4.58933" stroke-linecap="round"/>
<path d="M19.542 11.667V7.47949" stroke="#1C274C" stroke-width="4.58933" stroke-linecap="round"/>
<path d="M47.458 11.667V7.47949" stroke="#1C274C" stroke-width="4.58933" stroke-linecap="round"/>
<path d="M60.0205 25.625H46.4111H30.0101M5.58301 25.625H16.4007" stroke="#1C274C" stroke-width="4.58933" stroke-linecap="round"/>
<path d="M50.2503 47.9587C50.2503 49.5005 49.0005 50.7503 47.4587 50.7503C45.9168 50.7503 44.667 49.5005 44.667 47.9587C44.667 46.4168 45.9168 45.167 47.4587 45.167C49.0005 45.167 50.2503 46.4168 50.2503 47.9587Z" fill="#1C274C"/>
<path d="M50.2503 36.7917C50.2503 38.3335 49.0005 39.5833 47.4587 39.5833C45.9168 39.5833 44.667 38.3335 44.667 36.7917C44.667 35.2498 45.9168 34 47.4587 34C49.0005 34 50.2503 35.2498 50.2503 36.7917Z" fill="#1C274C"/>
<path d="M36.2913 47.9587C36.2913 49.5005 35.0415 50.7503 33.4997 50.7503C31.9578 50.7503 30.708 49.5005 30.708 47.9587C30.708 46.4168 31.9578 45.167 33.4997 45.167C35.0415 45.167 36.2913 46.4168 36.2913 47.9587Z" fill="#1C274C"/>
<path d="M36.2913 36.7917C36.2913 38.3335 35.0415 39.5833 33.4997 39.5833C31.9578 39.5833 30.708 38.3335 30.708 36.7917C30.708 35.2498 31.9578 34 33.4997 34C35.0415 34 36.2913 35.2498 36.2913 36.7917Z" fill="#1C274C"/>
<path d="M22.3333 47.9587C22.3333 49.5005 21.0834 50.7503 19.5417 50.7503C17.9999 50.7503 16.75 49.5005 16.75 47.9587C16.75 46.4168 17.9999 45.167 19.5417 45.167C21.0834 45.167 22.3333 46.4168 22.3333 47.9587Z" fill="#1C274C"/>
<path d="M22.3333 36.7917C22.3333 38.3335 21.0834 39.5833 19.5417 39.5833C17.9999 39.5833 16.75 38.3335 16.75 36.7917C16.75 35.2498 17.9999 34 19.5417 34C21.0834 34 22.3333 35.2498 22.3333 36.7917Z" fill="#1C274C"/>
</svg>
