<svg width="65" height="65" viewBox="0 0 65 65" fill="none" xmlns="http://www.w3.org/2000/svg">
<path d="M3.38525 28.4373C3.38525 29.5591 4.29469 30.4686 5.4165 30.4686C6.53832 30.4686 7.44775 29.5591 7.44775 28.4373H3.38525ZM8.32393 42.3213C7.89463 41.2849 6.7064 40.7928 5.66998 41.222C4.63355 41.6513 4.14137 42.8394 4.57066 43.8759L8.32393 42.3213ZM37.1909 58.9594L38.6591 56.4791L35.1629 54.4097L33.6948 56.8903L37.1909 58.9594ZM26.3405 56.4791L27.8087 58.9594L31.3046 56.8903L29.8365 54.4097L26.3405 56.4791ZM33.6948 56.8903C33.1729 57.7721 31.8268 57.7721 31.3046 56.8903L27.8087 58.9594C29.9039 62.4992 35.0958 62.4992 37.1909 58.9594L33.6948 56.8903ZM28.4373 7.44775H36.5623V3.38525H28.4373V7.44775ZM57.5519 28.4373V31.1457H61.6144V28.4373H57.5519ZM21.1316 49.4042C17.7315 49.3454 15.9498 49.1293 14.5533 48.5508L12.9987 52.304C15.1788 53.2069 17.6619 53.4074 21.0616 53.4659L21.1316 49.4042ZM4.57066 43.8759C6.15122 47.6917 9.18288 50.7234 12.9987 52.304L14.5533 48.5508C11.7329 47.3824 9.49217 45.1418 8.32393 42.3213L4.57066 43.8759ZM57.5519 31.1457C57.5519 34.3282 57.5508 36.6135 57.4279 38.4167C57.306 40.2018 57.0715 41.3658 56.6758 42.3213L60.429 43.8759C61.0641 42.343 61.3449 40.6852 61.4809 38.6933C61.6155 36.7197 61.6144 34.2727 61.6144 31.1457H57.5519ZM43.9379 53.4659C47.3377 53.4074 49.821 53.2069 52.0009 52.304L50.4463 48.5508C49.0499 49.1293 47.2681 49.3454 43.8681 49.4042L43.9379 53.4659ZM56.6758 42.3213C55.5074 45.1418 53.2668 47.3824 50.4463 48.5508L52.0009 52.304C55.8167 50.7234 58.8484 47.6917 60.429 43.8759L56.6758 42.3213ZM36.5623 7.44775C41.0343 7.44775 44.2459 7.44989 46.7508 7.68807C49.2257 7.92337 50.8003 8.37463 52.0556 9.14393L54.1784 5.68008C52.1772 4.45388 49.9074 3.90739 47.1354 3.64382C44.3935 3.38311 40.9558 3.38525 36.5623 3.38525V7.44775ZM61.6144 28.4373C61.6144 24.0439 61.6166 20.6062 61.3558 17.8643C61.0923 15.0922 60.5457 12.8223 59.3196 10.8213L55.8557 12.944C56.6251 14.1994 57.0763 15.7741 57.3117 18.2488C57.5498 20.7538 57.5519 23.9652 57.5519 28.4373H61.6144ZM52.0556 9.14393C53.6045 10.093 54.9067 11.3952 55.8557 12.944L59.3196 10.8213C58.0356 8.72593 56.2739 6.96415 54.1784 5.68008L52.0556 9.14393ZM28.4373 3.38525C24.0439 3.38525 20.6062 3.38311 17.8643 3.64382C15.0922 3.90739 12.8223 4.45388 10.8213 5.68008L12.944 9.14393C14.1994 8.37463 15.7741 7.92337 18.2488 7.68807C20.7538 7.44989 23.9652 7.44775 28.4373 7.44775V3.38525ZM7.44775 28.4373C7.44775 23.9652 7.44989 20.7538 7.68807 18.2488C7.92337 15.7741 8.37463 14.1994 9.14393 12.944L5.68008 10.8213C4.45388 12.8223 3.90739 15.0922 3.64382 17.8643C3.38311 20.6062 3.38525 24.0439 3.38525 28.4373H7.44775ZM10.8213 5.68008C8.72593 6.96415 6.96415 8.72593 5.68008 10.8213L9.14393 12.944C10.093 11.3952 11.3952 10.093 12.944 9.14393L10.8213 5.68008ZM29.8365 54.4097C29.2867 53.4808 28.804 52.6609 28.3347 52.0169C27.8401 51.3387 27.2733 50.728 26.487 50.2706L24.4445 53.7825C24.5729 53.8569 24.7478 53.9932 25.0515 54.4097C25.3802 54.8609 25.7516 55.4841 26.3405 56.4791L29.8365 54.4097ZM21.0616 53.4659C22.2508 53.4864 23.0041 53.5016 23.5783 53.565C24.1148 53.6246 24.3228 53.7115 24.4445 53.7825L26.487 50.2706C25.6941 49.8093 24.869 49.6206 24.0254 49.5271C23.2194 49.438 22.2454 49.4234 21.1316 49.4042L21.0616 53.4659ZM38.6591 56.4791C39.2479 55.4841 39.6192 54.8609 39.948 54.4097C40.2516 53.9932 40.4266 53.8569 40.555 53.7825L38.5126 50.2706C37.7264 50.728 37.1593 51.3387 36.665 52.0169C36.1956 52.6609 35.713 53.4808 35.1629 54.4097L38.6591 56.4791ZM43.8681 49.4042C42.7541 49.4234 41.7802 49.438 40.9742 49.5271C40.1306 49.6206 39.3056 49.8093 38.5126 50.2706L40.555 53.7825C40.6768 53.7115 40.8848 53.6246 41.4214 53.565C41.9955 53.5016 42.7487 53.4864 43.9379 53.4659L43.8681 49.4042Z" fill="#1C274C"/>
<path d="M24.375 30.0083L29.7917 35.2083L40.625 24.375" stroke="#1C274C" stroke-width="4.0625" stroke-linecap="round" stroke-linejoin="round"/>
</svg>
