<svg width="46" height="46" viewBox="0 0 46 46" fill="none" xmlns="http://www.w3.org/2000/svg">
<path d="M2.34375 24.012C2.34375 24.7891 2.97367 25.419 3.75071 25.419C4.52775 25.419 5.15767 24.7891 5.15767 24.012H2.34375ZM5.62176 31.598C5.32441 30.8801 4.50137 30.5392 3.78348 30.8366C3.0656 31.1339 2.72468 31.9569 3.02204 32.6748L5.62176 31.598ZM27.8536 12.9701C28.6147 13.1271 29.3589 12.6375 29.5159 11.8765C29.6729 11.1155 29.1833 10.3713 28.4224 10.2142L27.8536 12.9701ZM34.8072 16.5991C34.6502 15.8381 33.906 15.3485 33.1449 15.5055C32.3839 15.6626 31.8944 16.4068 32.0514 17.1678L34.8072 16.5991ZM21.5998 41.0685L22.0866 40.2463L19.6649 38.8131L19.1783 39.6353L21.5998 41.0685ZM15.43 40.2463L15.9167 41.0685L18.3382 39.6353L17.8515 38.8131L15.43 40.2463ZM19.1783 39.6353C19.0931 39.7792 18.9444 39.8638 18.7582 39.8638C18.5721 39.8638 18.4234 39.7792 18.3382 39.6353L15.9167 41.0685C17.1866 43.2141 20.33 43.2141 21.5998 41.0685L19.1783 39.6353ZM16.5072 12.6626H21.0094V9.84864H16.5072V12.6626ZM32.3589 24.012V25.5128H35.1728V24.012H32.3589ZM11.8422 35.3341C10.356 35.2865 9.54825 35.1572 8.92135 34.8976L7.8445 37.4973C8.96419 37.961 10.1992 38.0968 11.7522 38.1466L11.8422 35.3341ZM3.02204 32.6748C3.92643 34.8582 5.66112 36.5929 7.8445 37.4973L8.92135 34.8976C7.42745 34.2787 6.24056 33.0918 5.62176 31.598L3.02204 32.6748ZM32.3589 25.5128C32.3589 27.2803 32.3582 28.5353 32.2908 29.5228C32.2242 30.4978 32.0976 31.1084 31.8948 31.598L34.4945 32.6748C34.8629 31.7852 35.0218 30.8324 35.0982 29.7144C35.1736 28.6089 35.1728 27.2419 35.1728 25.5128H32.3589ZM25.7642 38.1466C27.3173 38.0968 28.5524 37.961 29.672 37.4973L28.5952 34.8976C27.9682 35.1572 27.1607 35.2865 25.6743 35.3341L25.7642 38.1466ZM31.8948 31.598C31.2761 33.0918 30.0892 34.2787 28.5952 34.8976L29.672 37.4973C31.8554 36.5929 33.5901 34.8582 34.4945 32.6748L31.8948 31.598ZM16.5072 9.84864C14.0781 9.84864 12.1575 9.84716 10.6217 9.99319C9.06503 10.1412 7.75908 10.4506 6.59864 11.1617L8.06892 13.561C8.71291 13.1663 9.53735 12.9229 10.8881 12.7945C12.2597 12.664 14.0236 12.6626 16.5072 12.6626V9.84864ZM5.15767 24.012C5.15767 21.5285 5.15915 19.7647 5.28957 18.393C5.418 17.0423 5.66146 16.2178 6.0561 15.5738L3.65684 14.1036C2.94572 15.264 2.6363 16.5699 2.48829 18.1266C2.34227 19.6625 2.34375 21.5831 2.34375 24.012H5.15767ZM6.59864 11.1617C5.39965 11.8965 4.39157 12.9046 3.65684 14.1036L6.0561 15.5738C6.55882 14.7535 7.24856 14.0637 8.06892 13.561L6.59864 11.1617ZM17.8515 38.8131C17.4748 38.1766 17.1444 37.6157 16.824 37.1744C16.4868 36.7103 16.1006 36.2909 15.5658 35.9746L14.1332 38.3966C14.2197 38.4476 14.3391 38.5414 14.5472 38.8281C14.7721 39.1378 15.0267 39.565 15.43 40.2463L17.8515 38.8131ZM11.7522 38.1466C12.5879 38.1734 13.122 38.1918 13.5278 38.2413C13.9114 38.288 14.0554 38.3505 14.1332 38.3966L15.5658 35.9746C15.0224 35.6532 14.4506 35.5189 13.8685 35.448C13.3086 35.3797 12.6273 35.3593 11.8422 35.3341L11.7522 38.1466ZM22.0866 40.2463C22.4897 39.565 22.7445 39.1378 22.9692 38.8281C23.1775 38.5414 23.2968 38.4476 23.3832 38.3966L21.9508 35.9746C21.4159 36.2909 21.0297 36.7103 20.6926 37.1744C20.3722 37.6157 20.0416 38.1766 19.6649 38.8131L22.0866 40.2463ZM25.6743 35.3341C24.8893 35.3593 24.2079 35.3797 23.6479 35.448C23.066 35.5189 22.494 35.6532 21.9508 35.9746L23.3832 38.3966C23.4611 38.3505 23.6052 38.288 23.9886 38.2413C24.3944 38.1918 24.9287 38.1734 25.7642 38.1466L25.6743 35.3341ZM21.0094 12.6626C24.382 12.6626 26.3985 12.6698 27.8536 12.9701L28.4224 10.2142C26.6157 9.8414 24.246 9.84864 21.0094 9.84864V12.6626ZM35.1728 24.012C35.1728 20.7755 35.1801 18.4058 34.8072 16.5991L32.0514 17.1678C32.3516 18.623 32.3589 20.6395 32.3589 24.012H35.1728Z" fill="#1C274C"/>
<path d="M13.1934 11.2562C13.2902 9.39505 13.5372 8.14032 14.1676 7.11159C14.7477 6.165 15.5435 5.36915 16.4901 4.78909C18.1818 3.75244 20.4846 3.75244 25.0901 3.75244H29.3109C32.1776 3.75244 34.1522 3.75244 35.6424 4.00241M33.7665 27.643C35.1691 27.5965 36.1165 27.4714 36.9275 27.1354C38.6513 26.4214 40.0207 25.0519 40.7347 23.3281C41.2701 22.0354 41.2701 20.3964 41.2701 17.1186V15.7117C41.2701 12.8451 41.2701 10.8706 41.0202 9.38028" stroke="#1C274C" stroke-width="2.81392" stroke-linecap="round"/>
<path d="M12.2119 24.3872H12.2288M18.7603 24.3872H18.7772M25.3093 24.3872H25.3261" stroke="#1C274C" stroke-width="3.75189" stroke-linecap="round" stroke-linejoin="round"/>
</svg>
