<svg width="43" height="43" viewBox="0 0 43 43" fill="none" xmlns="http://www.w3.org/2000/svg">
<path d="M29.0465 15.8529C29.5742 15.331 29.5788 14.4802 29.0569 13.9526C28.5352 13.4249 27.6843 13.4202 27.1567 13.942L29.0465 15.8529ZM19.1046 25.6851L29.0465 15.8529L27.1567 13.942L17.2148 23.7743L19.1046 25.6851Z" fill="#1C274C"/>
<path d="M33.3886 28.0762C31.2204 34.5812 30.1362 37.8337 28.5463 38.7578C27.034 39.6372 25.166 39.6372 23.6536 38.7578C22.0637 37.8337 20.9796 34.5812 18.8113 28.0762C18.4632 27.0319 18.289 26.5096 17.9968 26.0732C17.7137 25.6501 17.3503 25.2866 16.9272 25.0035C16.4907 24.7113 15.9685 24.5372 14.924 24.189C8.41913 22.0208 5.1667 20.9366 4.24245 19.3467C3.36319 17.8343 3.36319 15.9664 4.24245 14.454C5.1667 12.8642 8.41913 11.78 14.924 9.61172M35.8791 20.6048L36.4639 18.8504C39.1505 10.7908 40.4937 6.761 38.3664 4.63381C36.2394 2.50663 32.2095 3.8499 24.1499 6.53643L22.2572 7.16731" stroke="#1C274C" stroke-width="2.6875" stroke-linecap="round"/>
</svg>
