<svg width="33" height="32" viewBox="0 0 33 32" fill="none" xmlns="http://www.w3.org/2000/svg">
<path d="M29.6008 13.3152H28.5327V13.2602H16.5983V18.5644H24.0924C22.9991 21.6521 20.0613 23.8685 16.5983 23.8685C12.2045 23.8685 8.64206 20.3061 8.64206 15.9123C8.64206 11.5184 12.2045 7.95602 16.5983 7.95602C18.6265 7.95602 20.4717 8.72115 21.8766 9.97094L25.6273 6.22023C23.259 4.01304 20.0911 2.65186 16.5983 2.65186C9.27524 2.65186 3.33789 8.58921 3.33789 15.9123C3.33789 23.2353 9.27524 29.1727 16.5983 29.1727C23.9214 29.1727 29.8587 23.2353 29.8587 15.9123C29.8587 15.0232 29.7672 14.1553 29.6008 13.3152Z" fill="#FFC107"/>
<path d="M4.86621 9.74021L9.22292 12.9353C10.4018 10.0167 13.2567 7.95602 16.5977 7.95602C18.6259 7.95602 20.4711 8.72115 21.876 9.97094L25.6267 6.22023C23.2584 4.01304 20.0905 2.65186 16.5977 2.65186C11.5044 2.65186 7.08733 5.52738 4.86621 9.74021Z" fill="#FF3D00"/>
<path d="M16.599 29.1726C20.0242 29.1726 23.1364 27.8618 25.4895 25.7302L21.3854 22.2573C20.0093 23.3038 18.3278 23.8698 16.599 23.8685C13.15 23.8685 10.2214 21.6692 9.11817 18.6001L4.79395 21.9318C6.98854 26.2262 11.4454 29.1726 16.599 29.1726Z" fill="#4CAF50"/>
<path d="M29.6011 13.3158H28.533V13.2607H16.5986V18.5649H24.0928C23.5698 20.0344 22.6277 21.3186 21.383 22.2586L21.385 22.2573L25.4891 25.7302C25.1987 25.9941 29.8591 22.543 29.8591 15.9128C29.8591 15.0237 29.7676 14.1558 29.6011 13.3158Z" fill="#1976D2"/>
</svg>
