<svg width="42" height="32" viewBox="0 0 42 32" fill="none" xmlns="http://www.w3.org/2000/svg">
<path d="M40.7444 5.03507L15.2444 30.5351C15.0223 30.7579 14.7584 30.9348 14.4678 31.0554C14.1772 31.1761 13.8657 31.2382 13.551 31.2382C13.2364 31.2382 12.9248 31.1761 12.6343 31.0554C12.3437 30.9348 12.0798 30.7579 11.8577 30.5351L0.701412 19.3788C0.479037 19.1565 0.30264 18.8925 0.182291 18.6019C0.0619425 18.3114 3.31365e-09 18 0 17.6855C-3.31365e-09 17.371 0.0619425 17.0596 0.182291 16.769C0.30264 16.4785 0.479037 16.2145 0.701412 15.9921C0.923787 15.7697 1.18778 15.5933 1.47833 15.473C1.76888 15.3526 2.08029 15.2907 2.39477 15.2907C2.70926 15.2907 3.02066 15.3526 3.31121 15.473C3.60176 15.5933 3.86576 15.7697 4.08813 15.9921L13.553 25.457L37.3616 1.65234C37.8108 1.20323 38.4199 0.950928 39.055 0.950928C39.6901 0.950928 40.2993 1.20323 40.7484 1.65234C41.1975 2.10145 41.4498 2.71057 41.4498 3.3457C41.4498 3.98083 41.1975 4.58995 40.7484 5.03906L40.7444 5.03507Z" fill="#48664E"/>
</svg>
