<svg width="67" height="67" viewBox="0 0 67 67" fill="none" xmlns="http://www.w3.org/2000/svg">
<path d="M51.6462 25.1251H46.0628M46.0628 25.1251H40.4795M46.0628 25.1251V19.5417M46.0628 25.1251V30.7084" stroke="#1C274C" stroke-width="4.1875" stroke-linecap="round"/>
<path d="M33.4997 15.561L31.9704 16.991C32.3663 17.4144 32.9198 17.6548 33.4997 17.6548C34.0795 17.6548 34.6331 17.4144 35.0289 16.991L33.4997 15.561ZM7.40203 38.1958C8.00045 39.1854 9.28769 39.5023 10.2771 38.904C11.2666 38.3055 11.5836 37.0183 10.9852 36.0289L7.40203 38.1958ZM18.2497 45.1431C17.443 44.3146 16.1174 44.297 15.289 45.1038C14.4605 45.9103 14.4429 47.236 15.2496 48.0643L18.2497 45.1431ZM7.67676 26.0113C7.67676 17.9026 11.2156 12.8899 15.594 11.1755C19.9627 9.46487 26.0749 10.6858 31.9704 16.991L35.0289 14.131C28.3624 7.00097 20.5163 4.75097 14.0672 7.27626C7.62768 9.79775 3.48926 16.7278 3.48926 26.0113H7.67676ZM43.3009 55.7244C47.4672 52.3434 52.459 47.8122 56.4268 42.7515C60.3544 37.7421 63.5101 31.9237 63.5101 26.0112H59.3226C59.3226 30.5098 56.8679 35.4022 53.1315 40.1675C49.4356 44.8815 44.7099 49.1882 40.6623 52.4729L43.3009 55.7244ZM63.5101 26.0112C63.5101 16.7278 59.3717 9.79772 52.9322 7.27626C46.4832 4.75097 38.6369 7.00097 31.9704 14.131L35.0289 16.991C40.9244 10.6858 47.0367 9.46484 51.4054 11.1755C55.7836 12.8899 59.3226 17.9025 59.3226 26.0112H63.5101ZM23.6985 55.7244C27.248 58.6048 29.7094 60.7187 33.4997 60.7187V56.5312C31.4816 56.5312 30.2248 55.6275 26.3372 52.4729L23.6985 55.7244ZM40.6623 52.4729C36.7746 55.6275 35.5178 56.5312 33.4997 56.5312V60.7187C37.2899 60.7187 39.7513 58.6048 43.3009 55.7244L40.6623 52.4729ZM10.9852 36.0289C8.89981 32.5809 7.67676 29.1868 7.67676 26.0113H3.48926C3.48926 30.2328 5.09854 34.3874 7.40203 38.1958L10.9852 36.0289ZM26.3372 52.4729C23.7772 50.3954 20.9342 47.8999 18.2497 45.1431L15.2496 48.0643C18.0771 50.9679 21.0487 53.5742 23.6985 55.7244L26.3372 52.4729Z" fill="#1C274C"/>
</svg>
