<svg width="24" height="28" viewBox="0 0 24 28" fill="none" xmlns="http://www.w3.org/2000/svg">
<g clip-path="url(#clip0_145_34)">
<path d="M5.1915 23.2318C2.80714 18.3461 1.3886 15.3955 1.3886 15.3223C1.3886 15.2028 1.53427 15.2194 2.96686 15.5004C5.4864 15.9951 6.83254 16.1346 9.07648 16.1354C12.0453 16.1363 14.4629 15.666 16.3413 14.7212C17.335 14.2213 17.9326 13.7782 18.422 13.1779C19.0249 12.4381 19.2185 11.9285 19.2255 11.0709C19.2316 10.2552 19.1217 9.82513 18.6497 8.82704C18.4629 8.43263 18.2989 7.97992 18.2832 7.82107C18.2588 7.56544 18.2797 7.5288 18.4682 7.50699C18.88 7.45821 20.9127 9.43159 21.6613 10.6067C22.9516 12.6334 23.0563 14.8258 21.9641 16.9459C21.2931 18.2484 20.5516 19.1496 19.3101 20.1739C17.2468 21.8751 14.8485 23.0599 11.5367 24.0143C9.75791 24.5273 6.88147 25.1494 6.28906 25.1494C6.16351 25.1494 5.92784 24.7376 5.19325 23.2309L5.1915 23.2317V23.2318ZM5.85549 15.3528C3.53915 15.0527 1.59545 14.7918 1.53525 14.7726C1.43234 14.7395 1.06417 13.5111 0.856496 12.5113C0.804165 12.2583 0.727341 11.5882 0.685508 11.0212C0.498723 8.49113 1.04925 6.74184 2.52454 5.16888C5.02227 2.50799 10.3702 2.18428 16.404 4.32876C17.4631 4.70567 17.8836 4.96738 17.6891 5.13049C17.5452 5.2509 16.5698 5.24915 14.8843 5.12525C12.2495 4.93157 10.2438 5.29798 9.21001 6.16342C7.63607 7.4808 7.87606 10.3686 9.90621 14.5344C10.1261 14.9854 10.3477 15.4269 10.3983 15.5167C10.5161 15.7235 10.4306 15.9155 10.2255 15.9058C10.1382 15.9017 8.17168 15.6531 5.85544 15.3529L5.85549 15.3528ZM13.6262 13.0863C11.7775 12.7539 10.1155 11.6075 9.57895 10.2963C9.32156 9.66639 9.33376 8.84453 9.60859 8.35256C9.85722 7.90757 10.4993 7.39291 11.0743 7.17736C12.0313 6.81882 13.7073 6.96186 14.9287 7.50719C16.0881 8.02458 17.1159 8.93448 17.498 9.78072C17.9883 10.8669 17.5799 12.0787 16.5296 12.6572C15.8333 13.0401 14.4802 13.24 13.6252 13.0864L13.6262 13.0863Z" fill="#393939"/>
</g>
<defs>
<clipPath id="clip0_145_34">
<rect width="23.0523" height="26.3454" fill="white" transform="translate(0.155273 0.862305)"/>
</clipPath>
</defs>
</svg>
