<svg width="79" height="79" viewBox="0 0 79 79" fill="none" xmlns="http://www.w3.org/2000/svg">
<path d="M47.7292 64.1874H31.2708M47.7292 64.1874C47.7292 61.8388 47.7292 60.6643 47.8546 59.8852C48.2588 57.3724 48.3296 57.214 49.9319 55.2364C50.4287 54.6235 52.2733 52.9717 55.9623 49.6685C61.0107 45.1481 64.1875 38.5802 64.1875 31.2708C64.1875 28.3853 63.6924 25.6155 62.7826 23.0416M47.7292 64.1874C47.7292 67.2638 47.7292 68.802 47.0675 69.9478C46.6344 70.6983 46.0109 71.3218 45.2604 71.755C44.1146 72.4166 42.5764 72.4166 39.5 72.4166C36.4236 72.4166 34.8854 72.4166 33.7396 71.755C32.9891 71.3218 32.3657 70.6983 31.9323 69.9478C31.2708 68.802 31.2708 67.2638 31.2708 64.1874M31.2708 64.1874C31.2708 61.8388 31.2708 60.6643 31.1455 59.8852C30.7412 57.3724 30.6705 57.214 29.0681 55.2364C28.5712 54.6235 26.7265 52.9717 23.0376 49.6685C17.9893 45.1481 14.8125 38.5802 14.8125 31.2708C14.8125 17.6362 25.8655 6.58325 39.5 6.58325C43.9888 6.58325 48.1976 7.78122 51.8247 9.87492" stroke="#1C274C" stroke-width="4.9375" stroke-linecap="round"/>
<path d="M42.0859 27.9792L35.0322 37.8542H44.9072L37.8538 47.7292" stroke="#1C274C" stroke-width="4.9375" stroke-linecap="round" stroke-linejoin="round"/>
</svg>
