<svg width="59" height="59" viewBox="0 0 59 59" fill="none" xmlns="http://www.w3.org/2000/svg">
<path d="M27.5135 38.7358C27.5135 36.5725 26.9481 34.7582 25.8172 33.2857C25.0158 32.2728 23.9292 31.6066 22.555 31.2895C21.2029 30.9748 19.9246 30.9527 18.7692 31.2207C18.3759 28.8853 19.015 26.4122 20.6375 23.7916C22.26 21.1735 24.3619 19.2019 26.9259 17.8842L23.0393 12.2915C21.0726 13.265 19.2043 14.4991 17.4835 15.9913C15.7381 17.4835 14.1893 19.1994 12.8126 21.139C11.436 23.0787 10.4035 25.269 9.73972 27.752C9.07597 30.2349 8.8916 32.767 9.20873 35.3728C9.62173 38.8145 10.7329 41.5678 12.5422 43.6082C14.3491 45.6757 16.6034 46.7082 19.2977 46.7082C21.67 46.7082 23.6391 45.9953 25.1977 44.5498C26.7416 43.1338 27.5086 41.1941 27.5086 38.7284L27.5135 38.7358ZM49.9433 38.7358C49.9433 36.5725 49.3779 34.7582 48.2471 33.2857C47.4456 32.2532 46.3541 31.5845 44.9849 31.2772C43.6082 30.9724 42.3471 30.9576 41.199 31.2231C40.8057 28.9123 41.4203 26.4294 43.0477 23.799C44.6702 21.1931 46.7671 19.2265 49.3312 17.899L45.4544 12.2915C43.4877 13.265 41.6317 14.4991 39.8986 15.9913C38.1372 17.5056 36.573 19.2351 35.2425 21.139C33.8756 23.0811 32.8579 25.269 32.1941 27.752C31.5225 30.2334 31.3413 32.822 31.6607 35.3728C32.0688 38.8145 33.175 41.5678 34.9794 43.6082C36.7814 45.6585 39.0283 46.686 41.7226 46.686C44.0999 46.686 46.069 45.9731 47.6276 44.5301C49.1689 43.1141 49.9433 41.1745 49.9433 38.7088V38.7358Z" fill="#C2CFB5"/>
</svg>
