<svg width="21" height="21" viewBox="0 0 21 21" fill="none" xmlns="http://www.w3.org/2000/svg">
<g clip-path="url(#clip0_172_51)">
<path d="M16.036 19.8194C15.8059 19.8194 15.5768 19.7487 15.3797 19.608L10.745 16.2843L6.11032 19.608C5.9183 19.7462 5.68753 19.8201 5.45098 19.8193C5.21443 19.8185 4.98418 19.7429 4.79312 19.6035C4.60188 19.4648 4.45924 19.2694 4.38549 19.0449C4.31174 18.8205 4.31064 18.5786 4.38235 18.3535L6.11089 12.7748L1.51778 9.53816C1.32742 9.39767 1.18606 9.2009 1.11367 8.97566C1.04128 8.75043 1.04154 8.50814 1.11442 8.28306C1.18786 8.05852 1.33001 7.86275 1.52078 7.72341C1.71155 7.58406 1.94128 7.50819 2.17752 7.50652L7.86621 7.49798L9.67736 2.05769C9.7521 1.83358 9.89546 1.63866 10.0871 1.50053C10.2788 1.36241 10.5091 1.28809 10.7453 1.28809C10.9816 1.28809 11.2118 1.36241 11.4035 1.50053C11.5951 1.63866 11.7385 1.83358 11.8132 2.05769L13.5936 7.49798L19.3114 7.50652C19.5479 7.50786 19.778 7.58369 19.9689 7.72324C20.1599 7.8628 20.302 8.05898 20.3751 8.28391C20.4482 8.50885 20.4486 8.7511 20.3762 8.97626C20.3038 9.20142 20.1622 9.39803 19.9717 9.53816L15.3786 12.7748L17.1071 18.3535C17.179 18.5785 17.178 18.8204 17.1044 19.0449C17.0307 19.2693 16.8881 19.4648 16.6969 19.6035C16.5053 19.744 16.2737 19.8197 16.036 19.8194Z" fill="#FFAC33"/>
</g>
<defs>
<clipPath id="clip0_172_51">
<rect width="20.51" height="20.51" fill="white" transform="translate(0.489258 0.0913086)"/>
</clipPath>
</defs>
</svg>
