<svg width="57" height="57" viewBox="0 0 57 57" fill="none" xmlns="http://www.w3.org/2000/svg">
<path d="M7.82409 27.9122C6.58167 26.1265 6.08292 24.4432 7.29862 23.4235C8.32729 22.5596 9.84136 22.3948 11.7117 24.5546C11.7117 24.5546 17.3003 31.0472 19.2241 32.8507C19.6605 33.256 20.2038 33.3183 20.6981 32.8062C21.1167 32.3698 20.9653 31.9913 20.609 31.4703C20.609 31.4703 12.7314 19.7586 11.6983 18.3291C9.97495 15.9378 10.6385 14.3925 11.4356 13.6578C12.5444 12.6291 14.4949 12.4243 16.3073 14.9091L25.8459 27.6762C26.1353 27.9835 26.6029 28.028 26.9458 27.7875L27.0794 27.694C27.4312 27.4446 27.5336 26.9682 27.3199 26.5941C25.6499 23.6862 19.0059 12.0992 18.0307 9.9884C16.9085 7.55254 17.3894 6.31457 18.5784 5.59762C19.99 4.74707 21.3171 4.80942 22.9024 7.16512C24.6213 9.73012 31.2965 20.5289 32.9932 23.4324C33.2158 23.8109 33.6923 23.9534 34.0842 23.7619C34.0886 23.7575 34.0975 23.7575 34.102 23.753C34.476 23.5704 34.8145 23.2008 34.6586 22.6754C33.7324 19.6205 29.1857 10.1086 28.2328 7.92215C26.928 4.9341 27.5648 3.91879 28.9141 3.23301C30.3302 2.51606 31.8042 3.0816 32.8061 5.0766C33.483 6.43035 45.3684 28.0592 45.3684 28.0592C45.1947 24.8351 46.0096 22.5507 46.7043 20.2573C47.969 16.0847 51.0283 13.9161 53.246 14.8913C54.3993 15.3989 54.6086 16.4098 54.4839 17.1847C54.2346 18.6898 53.1747 23.3522 52.9699 27.0038C52.4889 35.5627 55.0762 45.4264 45.4352 51.6251C38.9826 55.7754 32.0669 55.0451 27.498 51.8522C21.9583 47.9825 8.8394 29.3729 7.82409 27.9122Z" fill="#FFCA28"/>
<path d="M52.4043 23.0537C51.5983 26.4425 51.4915 30.6018 51.5182 32.3741C51.625 39.2809 51.5894 45.257 44.6648 50.7165C43.8143 51.3889 41.1468 53.0277 38.043 53.8827C37.0455 54.1543 37.424 54.475 38.0386 54.4037C41.4274 54.0118 43.9968 52.5512 45.4263 51.6294C55.0629 45.4307 52.6938 35.6338 53.1747 27.0749C53.3796 23.4233 54.4929 17.6788 54.475 17.1845C54.4528 16.6902 53.2104 19.6649 52.4043 23.0537ZM34.525 23.41C34.525 23.41 33.8348 23.4144 33.1802 22.5015C31.2164 19.7718 25.0577 9.46277 23.2854 6.93339C21.2636 4.04777 19.38 5.15214 18.9525 5.38371C18.9525 5.38371 20.5021 5.43714 21.3571 6.70628C23.1028 9.29355 29.7201 20.8895 31.8086 23.3788C33.1579 24.9864 34.525 23.41 34.525 23.41ZM10.113 24.2872C10.7186 24.9374 16.0357 31.2475 17.995 33.0064C19.6783 34.5161 20.9341 32.5923 20.9341 32.5923C20.9341 32.5923 20.3151 32.6769 19.469 32.0401C17.3671 30.4503 12.3886 24.7815 11.2664 23.5881C9.6009 21.8157 8.05121 22.9246 7.72168 23.125C7.72613 23.125 8.6791 22.7553 10.113 24.2872ZM27.4268 27.2797C27.4268 27.2797 26.8568 27.6939 25.8103 26.4693C25.0488 25.5742 16.3073 14.9089 16.3073 14.9089C14.1164 12.2326 12.393 13.0297 12.0368 13.2346C12.0368 13.2346 13.1367 13.1767 14.4236 14.6596C15.0114 15.3364 24.3407 27.2307 24.7148 27.636C26.0819 29.1278 27.3466 27.8453 27.4268 27.2797Z" fill="#EDA600"/>
<path d="M45.3333 25.7524C45.3333 25.7524 33.7507 6.33233 33.0115 5.00975C31.3683 2.07515 29.4579 2.97468 29.1328 3.12163C29.1328 3.12163 30.1971 2.81882 31.4484 4.94741C32.1164 6.0785 40.6263 21.3794 43.3427 26.269C43.5565 27.1819 43.5387 28.3708 42.8529 29.1368C40.3948 31.8933 37.2598 34.7076 38.1816 41.6857C38.4131 43.4536 39.0677 45.128 39.5531 45.934C40.1677 46.9448 40.8757 46.5619 40.564 45.8048C40.3547 45.2927 40.0207 44.0859 39.9539 43.5694C39.6422 41.1647 38.5912 36.9609 43.3027 31.92C44.0998 31.0783 46.1259 28.5356 45.3333 25.7524Z" fill="#EDA600"/>
<path d="M46.0864 13.7867C45.4675 11.5913 44.5056 9.57851 43.2587 7.83289C42.1365 6.26093 40.7783 4.90718 39.2286 3.82062C39.0327 3.68258 38.7833 3.25508 38.9971 2.84093C39.2108 2.42679 39.6739 2.48023 39.8476 2.55148C41.7847 3.34859 43.37 4.72461 44.6793 6.61273C46.2334 8.85711 47.0038 10.9723 47.4001 13.3369C47.4446 13.5952 47.4357 14.1385 46.8835 14.281C46.3358 14.4235 46.1488 14.0005 46.0864 13.7867ZM43.0583 16.1424C42.4393 13.947 41.4775 11.9342 40.2306 10.1886C39.1084 8.61664 37.7502 7.26289 36.2005 6.17633C36.0046 6.03828 35.7552 5.61078 35.9689 5.19664C36.1827 4.77804 36.6458 4.83593 36.8195 4.90718C38.7566 5.70429 40.3419 7.08031 41.6511 8.96843C43.2053 11.2128 43.9757 13.328 44.372 15.6927C44.4165 15.9509 44.4076 16.4942 43.8554 16.6367C43.3121 16.7792 43.1207 16.3606 43.0583 16.1424ZM3.81292 34.4937C4.57886 36.6446 5.66988 38.5862 7.02808 40.2472C8.25269 41.739 9.6955 43.0037 11.312 43.9878C11.5168 44.1125 11.7929 44.5222 11.6059 44.9497C11.4189 45.3816 10.9557 45.3549 10.7732 45.297C8.78706 44.6291 7.11269 43.3599 5.68324 41.5609C3.9866 39.4234 3.07371 37.366 2.52152 35.0326C2.45917 34.7743 2.43246 34.2355 2.97574 34.0573C3.51902 33.8792 3.73722 34.2844 3.81292 34.4937ZM6.67628 31.9421C7.44222 34.093 8.53324 36.0345 9.89144 37.6955C11.116 39.1873 12.5589 40.452 14.1753 41.4362C14.3802 41.5609 14.6563 41.9705 14.4693 42.398C14.2822 42.83 13.8191 42.8033 13.6365 42.7454C11.6504 42.0774 9.97605 40.8083 8.5466 39.0092C6.84996 36.8717 5.93707 34.8144 5.38488 32.4809C5.32253 32.2227 5.29581 31.6838 5.8391 31.5057C6.38238 31.3231 6.60058 31.7328 6.67628 31.9421Z" fill="#B0BEC5"/>
</svg>
