<svg width="237" height="81" viewBox="0 0 237 81" fill="none" xmlns="http://www.w3.org/2000/svg">
<path d="M11.4608 45.7333C7.91224 45.7333 5.21089 44.7583 3.35671 42.8082C1.95009 41.3057 1.24678 39.5314 1.24678 37.4854C1.24678 36.7821 1.34268 36.1747 1.53449 35.6632C2.36568 33.6811 4.18789 32.2106 7.00113 31.2515C8.69547 30.6761 10.1341 30.3884 11.3169 30.3884C11.4767 30.3884 11.6366 30.4044 11.7964 30.4363C11.9882 30.4363 12.1481 30.4523 12.276 30.4843C12.7555 30.5162 12.9953 30.6281 12.9953 30.82C12.9953 31.1396 12.4997 31.3155 11.5087 31.3474C9.39878 31.5073 7.67247 32.0188 6.32979 32.8819C4.66742 33.9689 3.83624 35.4714 3.83624 37.3895C3.83624 39.1158 4.49159 40.6663 5.80231 42.0409C7.40074 43.6713 9.67051 44.4865 12.6116 44.4865C13.5707 44.4865 14.5937 44.3906 15.6806 44.1988C21.5309 43.2398 26.8057 38.6203 31.5051 30.3404L17.9824 31.3954C17.5987 31.4274 17.1831 31.2995 16.7356 31.0118C16.32 30.724 16.1122 30.4203 16.1122 30.1007C16.1122 29.4293 17.0233 28.9338 18.8455 28.6141C19.0693 28.5821 19.2611 28.5662 19.4209 28.5662C19.5808 28.5342 19.7246 28.5182 19.8525 28.5182C20.1402 28.5182 20.2841 28.5821 20.2841 28.71V28.9018C20.2841 29.0617 20.4759 29.1416 20.8595 29.1416C23.8006 29.0457 25.8307 28.9977 26.9496 28.9977C27.2692 28.9977 27.8766 28.9818 28.7718 28.9498C29.6669 28.9178 30.8497 28.8699 32.3203 28.8059C34.1745 25.2254 35.5172 21.8048 36.3483 18.544C35.3253 18.0964 33.9667 17.553 32.2723 16.9136C30.61 16.2423 28.6119 15.459 26.2782 14.5639C20.396 12.454 15.313 11.399 11.0292 11.399C6.93719 11.399 4.33175 12.4859 3.21285 14.6598C3.11694 14.8836 3.06899 15.1074 3.06899 15.3311C3.06899 15.8746 3.45261 16.466 4.21986 17.1054L5.37073 18.0165C5.37073 18.0485 5.29081 18.0964 5.13097 18.1604C5.06703 18.1604 4.98711 18.1764 4.8912 18.2083C4.82726 18.2083 4.74734 18.2083 4.65144 18.2083C3.82025 18.2083 3.053 17.8886 2.34969 17.2493C1.48654 16.482 1.05496 15.6029 1.05496 14.6119C1.05496 13.0134 1.85418 11.7027 3.45261 10.6797C5.05104 9.65671 6.90523 9.14522 9.01515 9.14522C13.0752 9.14522 17.9024 10.1043 23.4969 12.0224C24.3281 12.3101 25.8307 12.8855 28.0045 13.7487C30.1784 14.6119 33.0556 15.7787 36.6361 17.2493C36.8918 16.1304 37.0197 15.2352 37.0197 14.5639C37.0197 13.6688 36.8279 13.1573 36.4442 13.0294C36.3803 12.9655 36.3483 12.9175 36.3483 12.8855C36.3483 12.406 36.8279 12.1663 37.7869 12.1663C39.0976 12.1663 39.753 12.8855 39.753 14.3241C39.753 15.3791 39.5452 16.6738 39.1296 18.2083C42.3584 19.4871 44.804 20.1264 46.4664 20.1264C46.9779 20.1264 47.3935 20.0785 47.7132 19.9826C48.2247 19.8547 48.5923 19.6309 48.8161 19.3112C49.0399 18.9916 49.1678 18.8317 49.1997 18.8317C49.3596 18.8317 49.4395 18.9276 49.4395 19.1194C49.4395 19.599 49.1038 20.0945 48.4325 20.606C47.7611 21.1175 46.93 21.3732 45.9389 21.3732C44.4044 21.3732 42.0068 20.7338 38.746 19.4551C38.2345 21.0216 37.6431 22.588 36.9717 24.1545C36.3004 25.689 35.5491 27.2075 34.7179 28.71C35.0057 28.71 35.2774 28.71 35.5331 28.71C35.8209 28.6781 36.0926 28.6621 36.3483 28.6621C39.1935 28.6621 41.1117 29.0137 42.1027 29.717C42.4863 29.9408 42.6781 30.1166 42.6781 30.2445C42.6781 30.3085 42.6142 30.3404 42.4863 30.3404C42.4863 30.3404 42.2625 30.3085 41.815 30.2445C41.3994 30.1806 40.744 30.0847 39.8489 29.9568C39.4013 29.8929 38.9698 29.8449 38.5542 29.8129C38.1386 29.749 37.755 29.717 37.4033 29.717C37.1795 29.717 36.9717 29.733 36.7799 29.765C36.5881 29.765 36.4123 29.781 36.2524 29.8129C35.4852 29.9728 34.702 30.0687 33.9027 30.1007C28.5959 39.0519 22.458 44.1349 15.4888 45.3497C14.7855 45.4776 14.0982 45.5735 13.4268 45.6374C12.7555 45.7013 12.1001 45.7333 11.4608 45.7333ZM49.6725 43.5275C49.0331 43.5275 48.4417 43.3197 47.8983 42.9041C47.3868 42.4885 47.0831 42.0889 46.9871 41.7053C46.8912 41.2577 47.4827 39.6593 48.7614 36.91L47.6585 38.4924C47.179 39.1957 46.6994 39.8191 46.2199 40.3626C45.7404 40.9061 45.2928 41.3856 44.8772 41.8012C43.6624 42.952 42.6394 43.4316 41.8082 43.2398C39.8901 42.7922 38.9311 41.7053 38.9311 39.979C38.9311 38.6043 39.5864 36.846 40.8971 34.7041C41.3127 34.0648 41.8402 33.4254 42.4796 32.786C43.1189 32.1466 43.8542 31.5233 44.6854 30.9159C46.8273 29.3494 48.8893 28.5662 50.8713 28.5662C52.0861 28.5662 53.237 28.8858 54.3239 29.5252C54.6756 29.781 54.8514 30.0527 54.8514 30.3404C54.8514 30.5642 54.7875 30.6761 54.6596 30.6761C54.6277 30.6761 54.5957 30.6601 54.5637 30.6281C53.8924 29.8929 52.9973 29.5252 51.8783 29.5252C50.5676 29.5252 49.145 30.0207 47.6105 31.0118C46.076 32.0028 44.7014 33.3295 43.4866 34.9919C41.7603 37.3895 40.8971 39.3396 40.8971 40.8421C40.8971 41.7053 41.2008 42.2487 41.8082 42.4725C42.5755 42.7922 44.2059 41.3696 46.6994 38.2047C47.7224 36.9579 48.5696 35.839 49.2409 34.848C49.9442 33.857 50.5037 33.0098 50.9193 32.3065C51.1111 31.9548 51.4628 31.779 51.9743 31.779C52.9333 31.779 53.4128 32.0667 53.4128 32.6422C53.4128 32.7381 53.3969 32.802 53.3649 32.834C50.5836 37.2456 49.193 40.2347 49.193 41.8012C49.193 42.1848 49.3049 42.3926 49.5287 42.4246C50.2 42.6164 51.3189 42.1209 52.8854 40.938C54.7715 39.5314 56.5458 37.6612 58.2081 35.3275C58.5598 34.848 58.8795 34.6082 59.1672 34.6082C59.2631 34.6082 59.3111 34.6402 59.3111 34.7041C59.3111 34.864 59.1672 35.1677 58.8795 35.6152C58.2081 36.6702 57.4569 37.6612 56.6257 38.5883C55.8265 39.5154 54.9314 40.3786 53.9403 41.1778C52.5337 42.3606 51.3828 43.0959 50.4877 43.3836C50.2639 43.4795 49.9922 43.5275 49.6725 43.5275ZM49.4807 25.9767C49.4168 25.9767 49.3848 25.9447 49.3848 25.8808C49.3848 25.7529 49.6246 25.4492 50.1041 24.9697C50.8394 24.3303 51.5587 23.675 52.262 23.0036C52.9973 22.3323 53.5247 21.7728 53.8444 21.3253C53.9723 21.1974 54.1002 21.1335 54.228 21.1335C54.4199 21.1335 54.6117 21.2613 54.8035 21.5171C55.0273 21.7728 55.1391 22.0286 55.1391 22.2843C55.1391 22.4122 55.0912 22.5241 54.9953 22.62C54.26 23.1954 53.4928 23.7709 52.6935 24.3463C51.8943 24.9217 51.191 25.3373 50.5836 25.5931C49.9762 25.8488 49.6086 25.9767 49.4807 25.9767ZM58.3209 43.7672C57.0741 43.7672 56.1151 43.2398 55.4437 42.1848C55.4118 42.1528 55.3958 42.0409 55.3958 41.8491C55.3958 41.0819 55.8913 39.4994 56.8823 37.1018C57.3299 36.0149 57.7774 34.9919 58.225 34.0328C58.7045 33.0418 59.1841 32.0987 59.6636 31.2036C62.3489 26.2484 64.7786 22.3323 66.9524 19.4551C67.4639 18.8157 68.439 18.56 69.8776 18.6879C70.1972 18.7198 70.3571 18.8637 70.3571 19.1194C70.3571 19.4711 70.2452 19.7109 70.0214 19.8387C67.4 21.8527 63.8994 27.1595 59.5197 35.7591C59.6796 35.5993 60.0312 35.2476 60.5747 34.7041C61.1182 34.1607 61.8854 33.4094 62.8764 32.4504C65.37 30.0527 67.1762 28.8539 68.2951 28.8539C68.5189 28.9178 68.8226 28.9818 69.2062 29.0457C69.5898 29.0777 70.0374 29.1256 70.5489 29.1895C71.1243 29.1895 71.4121 29.5732 71.4121 30.3404C71.4121 32.4823 70.1653 35.0238 67.6717 37.9649C66.393 39.4675 64.9384 40.7622 63.308 41.8491C61.4219 43.1279 59.7595 43.7672 58.3209 43.7672ZM57.7455 42.2328C58.7365 42.2328 60.0632 41.6893 61.7256 40.6024C62.5887 40.0589 63.3719 39.4675 64.0753 38.8281C64.7786 38.1887 65.386 37.5174 65.8975 36.8141C68.0074 33.9689 69.0624 31.9229 69.0624 30.6761C69.0624 30.1966 68.8546 29.9568 68.439 29.9568C67.2561 29.9568 64.9864 31.6032 61.6297 34.896C58.4967 38.0928 56.9303 40.2987 56.9303 41.5135C56.9303 41.993 57.202 42.2328 57.7455 42.2328ZM81.1592 26.1685C80.6477 26.2325 80.0883 26.1685 79.4809 25.9767C78.9055 25.7849 78.6177 25.5451 78.6177 25.2574C78.6177 25.0656 78.6817 24.8738 78.8095 24.682C78.9374 24.4582 79.0973 24.2344 79.2891 24.0106C79.8325 23.3393 80.1522 22.9237 80.2481 22.7639C80.344 22.572 80.5199 22.4761 80.7756 22.4761C81.5109 22.4761 82.0863 22.8278 82.5019 23.5311C82.5339 23.5631 82.5499 23.627 82.5499 23.7229C82.5499 24.0106 82.39 24.4262 82.0703 24.9697C81.6548 25.7369 81.3511 26.1365 81.1592 26.1685ZM73.9183 43.4795C72.0642 43.0639 71.1371 42.3287 71.1371 41.2737C71.1371 40.7622 71.7605 38.956 73.0072 35.855C73.3589 35.2476 73.8224 34.3685 74.3979 33.2176C75.0053 32.0348 75.7565 30.5962 76.6517 28.9018C76.8115 28.6461 77.1632 28.5182 77.7066 28.5182C78.1862 28.5182 78.6497 28.5981 79.0973 28.758C79.5768 28.8858 79.7686 29.0137 79.6727 29.1416C75.4528 35.1197 73.3429 39.2597 73.3429 41.5614C73.3429 42.2328 73.5667 42.5684 74.0143 42.5684C74.8774 42.5684 76.2361 41.961 78.0903 40.7462C80.2961 39.2437 82.1503 37.4375 83.6528 35.3275C83.9725 34.816 84.2922 34.5603 84.6119 34.5603C84.7078 34.5603 84.7557 34.6082 84.7557 34.7041C84.7557 34.864 84.6119 35.1677 84.3241 35.6152C82.9175 37.8211 80.9674 39.7712 78.4739 41.4655C76.2361 43 74.7176 43.6713 73.9183 43.4795ZM86.0763 43.5275C83.7426 43.5275 82.5757 42.0889 82.5757 39.2117C82.5757 36.3345 83.7266 33.5852 86.0283 30.9638C86.0603 30.9318 86.0443 30.82 85.9804 30.6281C85.9165 30.4044 85.8845 30.2445 85.8845 30.1486C85.8845 29.9568 85.9484 29.8129 86.0763 29.717C87.1952 28.8219 88.5059 28.3744 90.0084 28.3744C90.424 28.3744 90.7597 28.4543 91.0155 28.6141C91.3351 28.742 91.6388 28.8699 91.9266 28.9977C92.2143 29.1256 92.486 29.2695 92.7418 29.4293C93.9566 30.1646 94.8037 30.9318 95.2833 31.7311C96.0825 31.6991 96.7538 31.6671 97.2973 31.6352C97.8408 31.6032 98.2563 31.5712 98.5441 31.5392H98.7359C99.0236 31.5392 99.1675 31.6511 99.1675 31.8749C99.1675 31.9389 99.1035 31.9868 98.9756 32.0188C98.624 32.0827 98.1604 32.1626 97.585 32.2585C97.0415 32.3544 96.3702 32.4504 95.571 32.5463C95.6669 32.77 95.7148 33.0258 95.7148 33.3135C95.7148 33.5373 95.6989 33.6971 95.6669 33.793C95.1874 36.3825 93.9246 38.6523 91.8786 40.6024C89.8965 42.5524 87.9624 43.5275 86.0763 43.5275ZM94.1324 31.7311C93.6209 30.9318 92.6139 30.5322 91.1114 30.5322C89.9605 30.5322 89.2092 30.6601 88.8576 30.9159C88.7617 30.9478 88.6658 31.0118 88.5698 31.1077C88.4739 31.2036 88.3621 31.3155 88.2342 31.4433C90.0244 31.6671 91.9905 31.763 94.1324 31.7311ZM86.2202 42.7602C87.6268 42.7602 89.2412 41.7532 91.0634 39.7392C92.9176 37.7252 94.0205 35.7751 94.3722 33.8889C94.4041 33.7291 94.4201 33.6012 94.4201 33.5053C94.4521 33.3774 94.4681 33.2656 94.4681 33.1696C94.4681 32.9778 94.4361 32.786 94.3722 32.5942C93.7648 32.6262 93.1414 32.6422 92.502 32.6422C91.8626 32.6422 91.2232 32.6422 90.5839 32.6422C89.9445 32.6422 89.3531 32.6422 88.8096 32.6422C88.2981 32.6422 87.8346 32.6262 87.419 32.5942C86.1402 34.3205 85.341 35.7112 85.0213 36.7661C84.6377 37.949 84.4459 39.0838 84.4459 40.1708C84.4459 41.8971 85.0373 42.7602 86.2202 42.7602ZM118.488 31.9708C115.035 31.5872 112.35 30.8359 110.432 29.717C108.738 28.6621 107.89 27.3993 107.89 25.9287C107.89 23.2114 110.288 20.6379 115.083 18.2083C117.705 16.8976 120.63 15.8586 123.859 15.0914C127.088 14.2922 130.636 13.7807 134.504 13.5569C135.719 13.4929 136.918 13.445 138.101 13.413C139.316 13.3811 140.514 13.3651 141.697 13.3651C144.734 13.3651 147.484 13.477 149.945 13.7007C152.439 13.8926 154.661 14.1963 156.611 14.6119C160.798 15.5389 162.892 16.8177 162.892 18.4481C162.892 18.8637 162.749 19.3112 162.461 19.7908C161.981 20.526 161.582 20.8937 161.262 20.8937C161.166 20.8937 161.118 20.8457 161.118 20.7498C161.118 20.622 161.246 20.2703 161.502 19.6949C161.63 19.4711 161.694 19.2633 161.694 19.0715C161.694 17.6649 159.072 16.5939 153.829 15.8586C151.879 15.6029 149.689 15.4111 147.26 15.2832C144.83 15.1553 142.161 15.0914 139.252 15.0914C138.42 15.0914 137.605 15.1074 136.806 15.1393C136.039 15.1393 135.303 15.1553 134.6 15.1873C128.079 15.443 122.372 16.8017 117.481 19.2633C112.782 21.597 110.432 24.0266 110.432 26.5521C110.432 29.1736 113.277 30.788 118.968 31.3954C119.383 31.4274 119.591 31.5233 119.591 31.6831C119.591 31.9708 119.223 32.0667 118.488 31.9708ZM120.214 46.6444C118.904 46.6444 117.913 46.1169 117.241 45.062C116.985 44.6464 116.858 44.3107 116.858 44.055C116.858 43.7992 116.969 43.6713 117.193 43.6713C117.385 43.6713 117.849 44.039 118.584 44.7743C119.351 45.5415 120.118 45.9251 120.886 45.9251C122.228 45.9251 123.747 44.7902 125.441 42.5205C127.008 40.4105 129.229 36.5104 132.107 30.82C133.705 27.6231 134.984 25.1615 135.943 23.4352C136.902 21.6769 137.509 20.6379 137.765 20.3183C138.213 19.8387 138.66 19.599 139.108 19.599C139.491 19.599 140.163 19.8227 141.122 20.2703C141.282 20.3662 141.362 20.4781 141.362 20.606C141.362 20.7978 141.25 20.9736 141.026 21.1335C140.802 21.2933 140.61 21.3572 140.45 21.3253C139.779 21.2294 137.605 24.7299 133.929 31.827C132.81 34.0008 131.723 35.9669 130.668 37.7252C129.613 39.4835 128.606 41.0179 127.647 42.3287C126.848 43.4476 125.713 44.4546 124.242 45.3497C122.804 46.2128 121.461 46.6444 120.214 46.6444ZM145.671 43.3836C144.743 43.3836 143.928 43.1598 143.225 42.7123C142.298 42.0729 141.834 41.1458 141.834 39.931C141.834 38.6203 142.394 37.0219 143.513 35.1357C145.015 32.6741 147.221 30.5162 150.13 28.6621C150.865 28.1825 151.601 27.9428 152.336 27.9428C153.295 27.9428 153.982 28.2465 154.398 28.8539C154.654 29.2055 154.782 29.6051 154.782 30.0527C154.782 31.3954 153.695 32.8659 151.521 34.4644C150.881 34.9119 150.194 35.3275 149.459 35.7112C148.756 36.0628 147.988 36.3186 147.157 36.4784L145.095 36.91C144.328 38.2846 143.944 39.4355 143.944 40.3626C143.944 41.6413 144.696 42.2807 146.198 42.2807C147.381 42.2807 148.819 41.7852 150.514 40.7942C152.784 39.4835 154.734 37.6612 156.364 35.3275C156.62 34.9439 156.86 34.7521 157.083 34.7521C157.179 34.7521 157.227 34.816 157.227 34.9439C157.227 35.1037 157.115 35.3435 156.892 35.6632C153.791 40.3306 150.29 42.8881 146.39 43.3357C146.262 43.3676 146.134 43.3836 146.006 43.3836C145.91 43.3836 145.798 43.3836 145.671 43.3836ZM145.671 36.0948C146.566 36.0948 147.717 35.6952 149.123 34.896C151.105 33.777 152.496 32.3385 153.295 30.5802C153.519 30.1326 153.631 29.765 153.631 29.4773C153.631 29.1896 153.519 29.0457 153.295 29.0457C152.879 29.0457 152.032 29.5572 150.754 30.5802C149.826 31.3794 148.915 32.2426 148.02 33.1696C147.157 34.0648 146.326 35.0238 145.527 36.0468C145.495 36.0788 145.543 36.0948 145.671 36.0948ZM164.562 26.1685C164.05 26.2325 163.491 26.1685 162.883 25.9767C162.308 25.7849 162.02 25.5451 162.02 25.2574C162.02 25.0656 162.084 24.8738 162.212 24.682C162.34 24.4582 162.5 24.2344 162.692 24.0106C163.235 23.3393 163.555 22.9237 163.651 22.7639C163.747 22.572 163.922 22.4761 164.178 22.4761C164.913 22.4761 165.489 22.8278 165.904 23.5311C165.936 23.5631 165.952 23.627 165.952 23.7229C165.952 24.0106 165.793 24.4262 165.473 24.9697C165.057 25.7369 164.754 26.1365 164.562 26.1685ZM157.321 43.4795C155.467 43.0639 154.54 42.3287 154.54 41.2737C154.54 40.7622 155.163 38.956 156.41 35.855C156.761 35.2476 157.225 34.3685 157.8 33.2176C158.408 32.0348 159.159 30.5962 160.054 28.9018C160.214 28.6461 160.566 28.5182 161.109 28.5182C161.589 28.5182 162.052 28.5981 162.5 28.758C162.979 28.8858 163.171 29.0137 163.075 29.1416C158.855 35.1197 156.745 39.2597 156.745 41.5614C156.745 42.2328 156.969 42.5684 157.417 42.5684C158.28 42.5684 159.639 41.961 161.493 40.7462C163.699 39.2437 165.553 37.4375 167.055 35.3275C167.375 34.816 167.695 34.5603 168.014 34.5603C168.11 34.5603 168.158 34.6082 168.158 34.7041C168.158 34.864 168.014 35.1677 167.727 35.6152C166.32 37.8211 164.37 39.7712 161.876 41.4655C159.639 43 158.12 43.6713 157.321 43.4795ZM164.636 46.5006C164.444 46.5325 164.252 46.3887 164.06 46.069C163.868 45.7813 163.772 45.4456 163.772 45.062C163.772 43.3357 166.314 40.4905 171.397 36.5264L172.116 35.903L171.924 34.4164C171.797 33.7131 171.669 33.1377 171.541 32.6901C171.445 32.2426 171.365 31.9069 171.301 31.6831C171.077 30.8519 170.79 30.4203 170.438 30.3884C170.214 30.3884 169.894 30.5003 169.479 30.724C169.095 30.9478 168.839 31.0597 168.712 31.0597C168.456 31.0597 168.328 30.9638 168.328 30.772C168.328 30.5162 168.776 30.1646 169.671 29.717C170.182 29.4613 170.678 29.2535 171.157 29.0936C171.637 28.9018 172.132 28.742 172.644 28.6141C173.027 28.5182 173.347 28.9498 173.603 29.9088C173.667 30.1646 173.763 30.6601 173.891 31.3954C174.05 32.1307 174.242 33.0897 174.466 34.2726C176.768 32.9938 178.51 31.6032 179.693 30.1007C180.332 29.0777 181.163 27.9588 182.186 26.7439C182.346 26.648 182.426 26.7439 182.426 27.0317C182.426 28.4703 181.355 30.1007 179.213 31.9229C177.487 33.3934 175.952 34.4804 174.61 35.1837C174.77 36.1108 174.929 37.0059 175.089 37.869C175.249 38.7322 175.441 39.5794 175.665 40.4105C175.729 40.6983 175.905 40.8421 176.192 40.8421C176.64 40.8421 177.375 40.4265 178.398 39.5953C178.75 39.3076 179.005 39.1638 179.165 39.1638L179.261 39.2597C179.261 39.3875 179.069 39.6753 178.686 40.1228C178.11 40.8261 177.391 41.4975 176.528 42.1368C175.537 42.8402 174.722 43.1758 174.082 43.1439C173.411 43.1119 172.836 41.0179 172.356 36.862C172.004 37.0858 171.557 37.3895 171.013 37.7731C170.502 38.1568 169.91 38.6363 169.239 39.2117C168.6 39.7872 168.024 40.3786 167.513 40.986C167.033 41.5614 166.634 42.1688 166.314 42.8082C165.962 43.4795 165.643 44.3427 165.355 45.3976C165.163 46.101 164.923 46.4686 164.636 46.5006ZM183.04 43.3836C182.113 43.3836 181.298 43.1598 180.595 42.7123C179.667 42.0729 179.204 41.1458 179.204 39.931C179.204 38.6203 179.763 37.0219 180.882 35.1357C182.385 32.6741 184.591 30.5162 187.5 28.6621C188.235 28.1825 188.97 27.9428 189.706 27.9428C190.665 27.9428 191.352 28.2465 191.768 28.8539C192.023 29.2055 192.151 29.6051 192.151 30.0527C192.151 31.3954 191.064 32.8659 188.89 34.4644C188.251 34.9119 187.564 35.3275 186.828 35.7112C186.125 36.0628 185.358 36.3186 184.527 36.4784L182.465 36.91C181.697 38.2846 181.314 39.4355 181.314 40.3626C181.314 41.6413 182.065 42.2807 183.568 42.2807C184.75 42.2807 186.189 41.7852 187.883 40.7942C190.153 39.4835 192.103 37.6612 193.734 35.3275C193.989 34.9439 194.229 34.7521 194.453 34.7521C194.549 34.7521 194.597 34.816 194.597 34.9439C194.597 35.1037 194.485 35.3435 194.261 35.6632C191.16 40.3306 187.66 42.8881 183.759 43.3357C183.632 43.3676 183.504 43.3836 183.376 43.3836C183.28 43.3836 183.168 43.3836 183.04 43.3836ZM183.04 36.0948C183.935 36.0948 185.086 35.6952 186.493 34.896C188.475 33.777 189.865 32.3385 190.665 30.5802C190.888 30.1326 191 29.765 191 29.4773C191 29.1896 190.888 29.0457 190.665 29.0457C190.249 29.0457 189.402 29.5572 188.123 30.5802C187.196 31.3794 186.285 32.2426 185.39 33.1696C184.527 34.0648 183.696 35.0238 182.896 36.0468C182.864 36.0788 182.912 36.0948 183.04 36.0948ZM201.931 26.1685C201.42 26.2325 200.86 26.1685 200.253 25.9767C199.678 25.7849 199.39 25.5451 199.39 25.2574C199.39 25.0656 199.454 24.8738 199.582 24.682C199.71 24.4582 199.869 24.2344 200.061 24.0106C200.605 23.3393 200.924 22.9237 201.02 22.7639C201.116 22.572 201.292 22.4761 201.548 22.4761C202.283 22.4761 202.858 22.8278 203.274 23.5311C203.306 23.5631 203.322 23.627 203.322 23.7229C203.322 24.0106 203.162 24.4262 202.842 24.9697C202.427 25.7369 202.123 26.1365 201.931 26.1685ZM194.69 43.4795C192.836 43.0639 191.909 42.3287 191.909 41.2737C191.909 40.7622 192.533 38.956 193.779 35.855C194.131 35.2476 194.595 34.3685 195.17 33.2176C195.777 32.0348 196.529 30.5962 197.424 28.9018C197.584 28.6461 197.935 28.5182 198.479 28.5182C198.958 28.5182 199.422 28.5981 199.869 28.758C200.349 28.8858 200.541 29.0137 200.445 29.1416C196.225 35.1197 194.115 39.2597 194.115 41.5614C194.115 42.2328 194.339 42.5684 194.786 42.5684C195.65 42.5684 197.008 41.961 198.862 40.7462C201.068 39.2437 202.922 37.4375 204.425 35.3275C204.745 34.816 205.064 34.5603 205.384 34.5603C205.48 34.5603 205.528 34.6082 205.528 34.7041C205.528 34.864 205.384 35.1677 205.096 35.6152C203.69 37.8211 201.74 39.7712 199.246 41.4655C197.008 43 195.49 43.6713 194.69 43.4795ZM202.005 43.5754C201.558 43.5754 201.334 43.4316 201.334 43.1439C201.334 43.1119 201.366 43 201.43 42.8082C202.932 39.931 204.707 35.823 206.753 30.4843C206.976 29.9088 207.36 29.4133 207.903 28.9977C208.447 28.5502 208.91 28.3264 209.294 28.3264C209.71 28.3264 209.885 28.5502 209.822 28.9977C209.502 29.6691 209.118 30.5322 208.671 31.5872C208.223 32.6422 207.696 33.873 207.088 35.2796C207.983 34.0967 209.31 32.77 211.068 31.2995C211.963 30.5642 212.731 29.9568 213.37 29.4773C214.041 28.9977 214.601 28.6461 215.048 28.4223C215.496 28.1985 215.991 28.0866 216.535 28.0866C217.174 28.0866 217.718 28.2465 218.165 28.5662C218.613 28.8858 218.837 29.2535 218.837 29.6691C218.837 29.9248 218.709 30.2125 218.453 30.5322C218.229 30.8199 217.989 30.9638 217.734 30.9638C217.606 30.9638 217.334 30.8359 216.919 30.5802C216.535 30.2925 216.119 30.1486 215.672 30.1486C215.192 30.1486 214.633 30.2925 213.993 30.5802C209.933 32.4024 206.433 36.5104 203.492 42.9041C203.3 43.3517 202.804 43.5754 202.005 43.5754ZM226.967 43.5275C226.328 43.5275 225.737 43.3197 225.193 42.9041C224.682 42.4885 224.378 42.0889 224.282 41.7053C224.186 41.2577 224.777 39.6593 226.056 36.91L224.953 38.4924C224.474 39.1957 223.994 39.8191 223.515 40.3626C223.035 40.9061 222.588 41.3856 222.172 41.8012C220.957 42.952 219.934 43.4316 219.103 43.2398C217.185 42.7922 216.226 41.7053 216.226 39.979C216.226 38.6043 216.881 36.846 218.192 34.7041C218.608 34.0648 219.135 33.4254 219.774 32.786C220.414 32.1466 221.149 31.5233 221.98 30.9159C224.122 29.3494 226.184 28.5662 228.166 28.5662C229.381 28.5662 230.532 28.8858 231.619 29.5252C231.97 29.781 232.146 30.0527 232.146 30.3404C232.146 30.5642 232.082 30.6761 231.954 30.6761C231.922 30.6761 231.89 30.6601 231.859 30.6281C231.187 29.8929 230.292 29.5252 229.173 29.5252C227.862 29.5252 226.44 30.0207 224.905 31.0118C223.371 32.0028 221.996 33.3295 220.781 34.9919C219.055 37.3895 218.192 39.3396 218.192 40.8421C218.192 41.7053 218.496 42.2487 219.103 42.4725C219.87 42.7922 221.501 41.3696 223.994 38.2047C225.017 36.9579 225.864 35.839 226.536 34.848C227.239 33.857 227.798 33.0098 228.214 32.3065C228.406 31.9548 228.758 31.779 229.269 31.779C230.228 31.779 230.708 32.0667 230.708 32.6422C230.708 32.7381 230.692 32.802 230.66 32.834C227.878 37.2456 226.488 40.2347 226.488 41.8012C226.488 42.1848 226.6 42.3926 226.823 42.4246C227.495 42.6164 228.614 42.1209 230.18 40.938C232.066 39.5314 233.841 37.6612 235.503 35.3275C235.855 34.848 236.174 34.6082 236.462 34.6082C236.558 34.6082 236.606 34.6402 236.606 34.7041C236.606 34.864 236.462 35.1677 236.174 35.6152C235.503 36.6702 234.752 37.6612 233.92 38.5883C233.121 39.5154 232.226 40.3786 231.235 41.1778C229.829 42.3606 228.678 43.0959 227.783 43.3836C227.559 43.4795 227.287 43.5275 226.967 43.5275Z" fill="#151F18"/>
<path d="M56.4462 77.0959C55.7429 77.0959 55.0982 76.9361 54.5121 76.6164C53.9366 76.286 53.4731 75.8012 53.1214 75.1618C52.7804 74.5224 52.6099 73.7232 52.6099 72.7642C52.6099 71.8051 52.7751 71.0059 53.1054 70.3665C53.4464 69.7271 53.9047 69.2476 54.4801 68.9279C55.0662 68.6082 55.7215 68.4484 56.4462 68.4484C57.2774 68.4484 58.0126 68.6295 58.652 68.9919C59.2914 69.3542 59.7975 69.8603 60.1705 70.5104C60.5435 71.1497 60.73 71.901 60.73 72.7642C60.73 73.6273 60.5435 74.3839 60.1705 75.0339C59.7975 75.684 59.2914 76.1901 58.652 76.5524C58.0126 76.9148 57.2774 77.0959 56.4462 77.0959ZM51.9546 80.101V68.5283H53.4251V70.8141L53.3292 72.7801L53.4891 74.7462V80.101H51.9546ZM56.3183 75.7532C56.8618 75.7532 57.3466 75.6307 57.7729 75.3856C58.2098 75.1405 58.5508 74.7942 58.7959 74.3466C59.0516 73.8884 59.1795 73.3609 59.1795 72.7642C59.1795 72.1568 59.0516 71.6346 58.7959 71.1977C58.5508 70.7501 58.2098 70.4038 57.7729 70.1587C57.3466 69.9136 56.8618 69.7911 56.3183 69.7911C55.7855 69.7911 55.3006 69.9136 54.8637 70.1587C54.4375 70.4038 54.0965 70.7501 53.8407 71.1977C53.5956 71.6346 53.4731 72.1568 53.4731 72.7642C53.4731 73.3609 53.5956 73.8884 53.8407 74.3466C54.0965 74.7942 54.4375 75.1405 54.8637 75.3856C55.3006 75.6307 55.7855 75.7532 56.3183 75.7532ZM68.3168 77.0959C67.6135 77.0959 66.9421 77 66.3027 76.8082C65.674 76.6164 65.1785 76.3819 64.8162 76.1049L65.4556 74.8901C65.8179 75.1352 66.2654 75.343 66.7983 75.5135C67.3311 75.684 67.8745 75.7692 68.4287 75.7692C69.1426 75.7692 69.6541 75.668 69.9632 75.4655C70.2828 75.263 70.4427 74.9806 70.4427 74.6183C70.4427 74.3519 70.3468 74.1441 70.155 73.9949C69.9632 73.8458 69.7074 73.7339 69.3877 73.6593C69.0787 73.5847 68.7324 73.5207 68.3487 73.4675C67.9651 73.4035 67.5815 73.3289 67.1979 73.2437C66.8142 73.1478 66.4626 73.0199 66.1429 72.8601C65.8232 72.6896 65.5675 72.4605 65.3757 72.1727C65.1838 71.8744 65.0879 71.4801 65.0879 70.9899C65.0879 70.4784 65.2318 70.0308 65.5195 69.6472C65.8072 69.2636 66.2122 68.9705 66.7343 68.7681C67.2671 68.555 67.8958 68.4484 68.6205 68.4484C69.1746 68.4484 69.734 68.5177 70.2988 68.6562C70.8743 68.7841 71.3431 68.9705 71.7054 69.2156L71.0501 70.4304C70.6665 70.1747 70.2669 69.9989 69.8513 69.903C69.4357 69.8071 69.0201 69.7591 68.6045 69.7591C67.9331 69.7591 67.4323 69.871 67.102 70.0948C66.7716 70.3079 66.6064 70.585 66.6064 70.926C66.6064 71.2137 66.7024 71.4375 66.8942 71.5973C67.0966 71.7465 67.3524 71.8637 67.6614 71.949C67.9811 72.0342 68.3328 72.1088 68.7164 72.1727C69.1 72.226 69.4836 72.3006 69.8672 72.3965C70.2509 72.4818 70.5972 72.6043 70.9062 72.7642C71.2259 72.924 71.4817 73.1478 71.6735 73.4355C71.8759 73.7232 71.9772 74.1068 71.9772 74.5864C71.9772 75.0979 71.828 75.5401 71.5296 75.9131C71.2312 76.286 70.8103 76.5791 70.2669 76.7922C69.7234 76.9947 69.0734 77.0959 68.3168 77.0959ZM76.9319 77V68.5283H78.4664V77H76.9319ZM77.6992 66.8979C77.4008 66.8979 77.1504 66.802 76.9479 66.6102C76.7561 66.4184 76.6602 66.1839 76.6602 65.9069C76.6602 65.6192 76.7561 65.3794 76.9479 65.1876C77.1504 64.9958 77.4008 64.8999 77.6992 64.8999C77.9976 64.8999 78.2427 64.9958 78.4345 65.1876C78.6369 65.3687 78.7382 65.5979 78.7382 65.8749C78.7382 66.1626 78.6423 66.4077 78.4505 66.6102C78.2586 66.802 78.0082 66.8979 77.6992 66.8979ZM88.1257 77.0959C87.2626 77.0959 86.49 76.9094 85.808 76.5365C85.1366 76.1635 84.6092 75.652 84.2255 75.002C83.8419 74.3519 83.6501 73.606 83.6501 72.7642C83.6501 71.9223 83.8419 71.1764 84.2255 70.5264C84.6092 69.8763 85.1366 69.3702 85.808 69.0078C86.49 68.6349 87.2626 68.4484 88.1257 68.4484C88.893 68.4484 89.575 68.6029 90.1717 68.9119C90.7791 69.2103 91.248 69.6579 91.5783 70.2546L90.4115 71.0059C90.1344 70.5903 89.7934 70.2866 89.3885 70.0948C88.9942 69.8923 88.5679 69.7911 88.1097 69.7911C87.5556 69.7911 87.0601 69.9136 86.6232 70.1587C86.1863 70.4038 85.8399 70.7501 85.5842 71.1977C85.3285 71.6346 85.2006 72.1568 85.2006 72.7642C85.2006 73.3716 85.3285 73.899 85.5842 74.3466C85.8399 74.7942 86.1863 75.1405 86.6232 75.3856C87.0601 75.6307 87.5556 75.7532 88.1097 75.7532C88.5679 75.7532 88.9942 75.6573 89.3885 75.4655C89.7934 75.263 90.1344 74.954 90.4115 74.5384L91.5783 75.2737C91.248 75.8598 90.7791 76.3127 90.1717 76.6324C89.575 76.9414 88.893 77.0959 88.1257 77.0959ZM101.861 77V75.2098L101.781 74.8741V71.8211C101.781 71.1711 101.589 70.6702 101.205 70.3186C100.833 69.9562 100.268 69.7751 99.5112 69.7751C99.0103 69.7751 98.5201 69.8603 98.0406 70.0308C97.5611 70.1907 97.1561 70.4091 96.8258 70.6862L96.1864 69.5353C96.6233 69.1837 97.1455 68.9173 97.7529 68.7361C98.3709 68.5443 99.0156 68.4484 99.687 68.4484C100.849 68.4484 101.744 68.7308 102.372 69.2956C103.001 69.8603 103.315 70.7235 103.315 71.885V77H101.861ZM99.0796 77.0959C98.4509 77.0959 97.8967 76.9893 97.4172 76.7762C96.9483 76.5631 96.586 76.27 96.3303 75.8971C96.0745 75.5135 95.9467 75.0819 95.9467 74.6024C95.9467 74.1441 96.0532 73.7285 96.2663 73.3556C96.4901 72.9826 96.8471 72.6842 97.3373 72.4605C97.8381 72.2367 98.5095 72.1248 99.3513 72.1248H102.037V73.2277H99.4153C98.648 73.2277 98.1312 73.3556 97.8648 73.6113C97.5984 73.8671 97.4652 74.1761 97.4652 74.5384C97.4652 74.954 97.6303 75.2897 97.9607 75.5454C98.291 75.7905 98.7492 75.9131 99.3353 75.9131C99.9108 75.9131 100.412 75.7852 100.838 75.5294C101.275 75.2737 101.589 74.9007 101.781 74.4105L102.085 75.4655C101.882 75.9663 101.525 76.366 101.014 76.6643C100.502 76.952 99.8575 77.0959 99.0796 77.0959ZM113.716 68.4484C114.408 68.4484 115.016 68.5816 115.538 68.848C116.071 69.1144 116.486 69.5193 116.785 70.0628C117.083 70.6063 117.232 71.2936 117.232 72.1248V77H115.698V72.3006C115.698 71.4801 115.495 70.862 115.09 70.4464C114.696 70.0308 114.137 69.823 113.412 69.823C112.869 69.823 112.394 69.9296 111.989 70.1427C111.584 70.3559 111.27 70.6702 111.046 71.0858C110.833 71.5014 110.727 72.0182 110.727 72.6363V77H109.192V68.5283H110.663V70.8141L110.423 70.2067C110.7 69.6525 111.126 69.221 111.702 68.9119C112.277 68.6029 112.948 68.4484 113.716 68.4484ZM128.368 77V75.2098L128.288 74.8741V71.8211C128.288 71.1711 128.096 70.6702 127.713 70.3186C127.34 69.9562 126.775 69.7751 126.018 69.7751C125.517 69.7751 125.027 69.8603 124.548 70.0308C124.068 70.1907 123.663 70.4091 123.333 70.6862L122.694 69.5353C123.13 69.1837 123.653 68.9173 124.26 68.7361C124.878 68.5443 125.523 68.4484 126.194 68.4484C127.356 68.4484 128.251 68.7308 128.879 69.2956C129.508 69.8603 129.823 70.7235 129.823 71.885V77H128.368ZM125.587 77.0959C124.958 77.0959 124.404 76.9893 123.924 76.7762C123.455 76.5631 123.093 76.27 122.837 75.8971C122.582 75.5135 122.454 75.0819 122.454 74.6024C122.454 74.1441 122.56 73.7285 122.773 73.3556C122.997 72.9826 123.354 72.6842 123.844 72.4605C124.345 72.2367 125.017 72.1248 125.858 72.1248H128.544V73.2277H125.922C125.155 73.2277 124.638 73.3556 124.372 73.6113C124.105 73.8671 123.972 74.1761 123.972 74.5384C123.972 74.954 124.137 75.2897 124.468 75.5454C124.798 75.7905 125.256 75.9131 125.842 75.9131C126.418 75.9131 126.919 75.7852 127.345 75.5294C127.782 75.2737 128.096 74.9007 128.288 74.4105L128.592 75.4655C128.389 75.9663 128.032 76.366 127.521 76.6643C127.009 76.952 126.365 77.0959 125.587 77.0959ZM135.699 77V65.1396H137.234V77H135.699ZM143.201 77V68.5283H144.735V77H143.201ZM143.968 66.8979C143.67 66.8979 143.419 66.802 143.217 66.6102C143.025 66.4184 142.929 66.1839 142.929 65.9069C142.929 65.6192 143.025 65.3794 143.217 65.1876C143.419 64.9958 143.67 64.8999 143.968 64.8999C144.266 64.8999 144.511 64.9958 144.703 65.1876C144.906 65.3687 145.007 65.5979 145.007 65.8749C145.007 66.1626 144.911 66.4077 144.719 66.6102C144.527 66.802 144.277 66.8979 143.968 66.8979ZM153.132 77.0959C152.428 77.0959 151.757 77 151.118 76.8082C150.489 76.6164 149.993 76.3819 149.631 76.1049L150.27 74.8901C150.633 75.1352 151.08 75.343 151.613 75.5135C152.146 75.684 152.689 75.7692 153.244 75.7692C153.958 75.7692 154.469 75.668 154.778 75.4655C155.098 75.263 155.258 74.9806 155.258 74.6183C155.258 74.3519 155.162 74.1441 154.97 73.9949C154.778 73.8458 154.522 73.7339 154.203 73.6593C153.894 73.5847 153.547 73.5207 153.164 73.4675C152.78 73.4035 152.396 73.3289 152.013 73.2437C151.629 73.1478 151.277 73.0199 150.958 72.8601C150.638 72.6896 150.382 72.4605 150.191 72.1727C149.999 71.8744 149.903 71.4801 149.903 70.9899C149.903 70.4784 150.047 70.0308 150.334 69.6472C150.622 69.2636 151.027 68.9705 151.549 68.7681C152.082 68.555 152.711 68.4484 153.435 68.4484C153.989 68.4484 154.549 68.5177 155.114 68.6562C155.689 68.7841 156.158 68.9705 156.52 69.2156L155.865 70.4304C155.481 70.1747 155.082 69.9989 154.666 69.903C154.251 69.8071 153.835 69.7591 153.419 69.7591C152.748 69.7591 152.247 69.871 151.917 70.0948C151.587 70.3079 151.421 70.585 151.421 70.926C151.421 71.2137 151.517 71.4375 151.709 71.5973C151.912 71.7465 152.167 71.8637 152.476 71.949C152.796 72.0342 153.148 72.1088 153.531 72.1727C153.915 72.226 154.299 72.3006 154.682 72.3965C155.066 72.4818 155.412 72.6043 155.721 72.7642C156.041 72.924 156.297 73.1478 156.488 73.4355C156.691 73.7232 156.792 74.1068 156.792 74.5864C156.792 75.0979 156.643 75.5401 156.345 75.9131C156.046 76.286 155.625 76.5791 155.082 76.7922C154.538 76.9947 153.888 77.0959 153.132 77.0959ZM164.656 77.0959C163.803 77.0959 163.143 76.8668 162.674 76.4086C162.205 75.9504 161.971 75.295 161.971 74.4425V66.6741H163.505V74.3786C163.505 74.8368 163.617 75.1884 163.841 75.4335C164.075 75.6786 164.406 75.8012 164.832 75.8012C165.311 75.8012 165.711 75.668 166.031 75.4016L166.51 76.5045C166.276 76.707 165.993 76.8561 165.663 76.952C165.343 77.048 165.008 77.0959 164.656 77.0959ZM160.532 69.7911V68.5283H165.935V69.7911H160.532ZM176.661 77V75.2098L176.581 74.8741V71.8211C176.581 71.1711 176.389 70.6702 176.006 70.3186C175.633 69.9562 175.068 69.7751 174.312 69.7751C173.811 69.7751 173.32 69.8603 172.841 70.0308C172.361 70.1907 171.956 70.4091 171.626 70.6862L170.987 69.5353C171.424 69.1837 171.946 68.9173 172.553 68.7361C173.171 68.5443 173.816 68.4484 174.487 68.4484C175.649 68.4484 176.544 68.7308 177.173 69.2956C177.801 69.8603 178.116 70.7235 178.116 71.885V77H176.661ZM173.88 77.0959C173.251 77.0959 172.697 76.9893 172.218 76.7762C171.749 76.5631 171.386 76.27 171.131 75.8971C170.875 75.5135 170.747 75.0819 170.747 74.6024C170.747 74.1441 170.854 73.7285 171.067 73.3556C171.29 72.9826 171.647 72.6842 172.138 72.4605C172.638 72.2367 173.31 72.1248 174.152 72.1248H176.837V73.2277H174.216C173.448 73.2277 172.932 73.3556 172.665 73.6113C172.399 73.8671 172.266 74.1761 172.266 74.5384C172.266 74.954 172.431 75.2897 172.761 75.5454C173.091 75.7905 173.55 75.9131 174.136 75.9131C174.711 75.9131 175.212 75.7852 175.638 75.5294C176.075 75.2737 176.389 74.9007 176.581 74.4105L176.885 75.4655C176.683 75.9663 176.326 76.366 175.814 76.6643C175.303 76.952 174.658 77.0959 173.88 77.0959Z" fill="#25352A"/>
</svg>
